<svg xmlns="http://www.w3.org/2000/svg" width="14" height="18" fill="none"><path fill="#fff" fill-rule="evenodd" d="M8.875 1.083a.208.208 0 0 0-.208-.208H2.833A2.292 2.292 0 0 0 .542 3.167v11.666a2.292 2.292 0 0 0 2.291 2.292h8.334a2.292 2.292 0 0 0 2.291-2.292v-8.21a.208.208 0 0 0-.208-.209H9.5a.625.625 0 0 1-.625-.625V1.083ZM7 7.333a1.667 1.667 0 1 0 0 3.334 1.667 1.667 0 0 0 0-3.334Zm-3.333 7.084a2.5 2.5 0 0 1 2.5-2.5h1.666a2.5 2.5 0 0 1 2.5 2.5c0 .46-.373.833-.833.833h-5a.833.833 0 0 1-.833-.833Z" clip-rule="evenodd"/><path fill="#fff" d="M10.125 1.353c0-.153.16-.25.28-.154.1.081.192.176.269.284l2.51 3.498c.058.08-.004.183-.102.183h-2.749a.208.208 0 0 1-.208-.208V1.353Z"/></svg>