<svg width="22" height="22" viewBox="0 0 22 22" fill="none" xmlns="http://www.w3.org/2000/svg">
<path d="M14.7272 8.24517C14.9957 7.97668 14.9957 7.54138 14.7272 7.2729C14.4587 7.00441 14.0234 7.00441 13.755 7.2729L11.0002 10.0277L8.24542 7.2729C7.97694 7.00441 7.54164 7.00441 7.27315 7.2729C7.00466 7.54138 7.00466 7.97668 7.27315 8.24517L10.0279 10.9999L7.27314 13.7547C7.00466 14.0232 7.00466 14.4585 7.27314 14.727C7.54163 14.9955 7.97693 14.9955 8.24541 14.727L11.0002 11.9722L13.755 14.727C14.0234 14.9955 14.4587 14.9955 14.7272 14.727C14.9957 14.4585 14.9957 14.0232 14.7272 13.7547L11.9725 10.9999L14.7272 8.24517Z" fill="black"/>
</svg>
