<svg xmlns="http://www.w3.org/2000/svg" width="16" height="16" fill="none"><path fill="#fff" d="M7.312 14.417c0-.38.308-.688.688-.688h5.5a.23.23 0 0 0 .23-.23v-11a.23.23 0 0 0-.23-.228H8A.687.687 0 1 1 8 .896h5.5c.886 0 1.604.718 1.604 1.604v11c0 .886-.718 1.604-1.604 1.604H8a.687.687 0 0 1-.688-.687Z"/><path fill="#fff" d="M.208 9.022c0 .506.41.917.917.917h4.451c.021.326.048.651.08.976l.026.28a.658.658 0 0 0 .94.53A15.439 15.439 0 0 0 11.1 8.48l.027-.028a.661.661 0 0 0 0-.915L11.1 7.51a15.44 15.44 0 0 0-4.478-3.243.658.658 0 0 0-.94.53l-.027.28c-.031.324-.058.65-.079.976H1.125a.917.917 0 0 0-.917.916v2.054Z"/></svg>