<svg xmlns="http://www.w3.org/2000/svg" width="26" height="20" fill="none"><path fill="#fff" fill-rule="evenodd" d="M20.125 7.063A3.369 3.369 0 0 0 16.83 9.73l-.028.13c-.085.4-.1.811-.044 1.216l.191 1.391-.214.027a2.207 2.207 0 0 0-1.922 2.188v2.884c0 1.109.822 2.045 1.922 2.188 2.25.292 4.53.292 6.78 0a2.207 2.207 0 0 0 1.922-2.188v-2.884a2.207 2.207 0 0 0-1.922-2.188c-.071-.01-.143-.018-.214-.027l.191-1.39c.056-.406.04-.817-.044-1.217l-.028-.13a3.369 3.369 0 0 0-3.295-2.668Zm1.305 5.245.204-1.486c.027-.19.02-.383-.02-.57l-.028-.131a1.494 1.494 0 0 0-2.922 0l-.028.13c-.04.188-.046.38-.02.57l.204 1.487a26.3 26.3 0 0 1 2.61 0Z" clip-rule="evenodd"/><path fill="#fff" d="M22.865 5.476c.032.21-.201.362-.391.267a5.243 5.243 0 0 0-7.478 3.599l-.028.13a5.403 5.403 0 0 0-.11 1.415c.01.194-.08.38-.238.493a4.08 4.08 0 0 0-1.682 3.303v1.774a.374.374 0 0 1-.372.374 90.301 90.301 0 0 1-7.006-.228l-1.892-.136a2.66 2.66 0 0 1-2.427-2.175 29.663 29.663 0 0 1-.272-8.869l.34-2.836a2.724 2.724 0 0 1 2.706-2.4h2.864a2.246 2.246 0 0 1 2.246 2.246c0 .041.033.075.074.075H20.09c1.326 0 2.455.963 2.664 2.272l.08.502.03.194Z"/></svg>