<svg xmlns="http://www.w3.org/2000/svg" width="26" height="19" fill="none"><path fill="#fff" d="M7.25.563C3.774.563.812 3.162.812 6.537c0 2.329 1.09 4.29 2.536 5.913 1.44 1.619 3.298 2.978 4.978 4.114l2.899 1.962a.938.938 0 0 0 1.05 0l2.899-1.961c.537-.364 1.092-.75 1.646-1.16a.372.372 0 0 0 .111-.465L15.229 11.5a.25.25 0 0 0-.417-.048l-.09.11a2.5 2.5 0 0 1-1.93.91H10.5a2.5 2.5 0 0 1 0-5h.877a.5.5 0 0 0 .386-.183l1.965-2.381a2.5 2.5 0 0 1 4.2.55l1.004 2.189c.106.23.405.29.623.163.372-.216.802-.339 1.258-.339h1.485c.189 0 .35-.14.365-.328.016-.2.024-.402.024-.607 0-3.375-2.96-5.974-6.437-5.974-1.792 0-3.369.84-4.5 1.927C10.619 1.403 9.042.562 7.25.562Z"/><path fill="#fff" d="M16.509 6.11a.938.938 0 0 0-1.576-.207L12.35 9.035H10.5a.937.937 0 1 0 0 1.875h2.292c.28 0 .545-.125.723-.341l1.912-2.318 2.242 4.89a.938.938 0 0 0 1.575.206l2.01-2.437h2.996a.937.937 0 1 0 0-1.875h-3.438a.938.938 0 0 0-.723.34L18.75 11l-2.24-4.89Z"/></svg>